<svg xmlns="http://www.w3.org/2000/svg" aria-hidden="true" role="img" width="1.15em" height="1em" preserveAspectRatio="xMidYMid meet" viewBox="0 0 1025 896"><path d="M512.56 896q-111 0-200-26.5t-161-84.5t-111.5-159.5T.56 384V128q0-53 37.5-90.5T128.56 0h768q53 0 90.5 37.5t37.5 90.5v256q0 140-39.5 241.5T873.56 785t-161 84.5t-200 26.5zm0-320q-43 0-75.5-11t-60-38t-42-79t-14.5-128V192h-192v192q1 84 21.5 150t54.5 109.5t83 72t104.5 40.5t120.5 12q76 0 138.5-17t115.5-53.5t86.5-100t43.5-149.5h-192q-37 128-192 128zm256-448l-64 192l192 64l64-192z" fill="currentColor"/></svg>