<svg xmlns="http://www.w3.org/2000/svg" width="24" height="24"><path fill="none" stroke="#face74" stroke-linecap="round" stroke-linejoin="round" stroke-width="1.5" d="M12.14 14.32v8.38l7.31-4.06v-8.39l-7.31 4.07Zm0 0v8.38l-7.3-4.06v-8.39l7.3 4.07Zm0 0-7.3-4.07 7.11-4.11 7.5 4.11-7.31 4.07Z" style="font-variation-settings:normal"/><circle cx="11.72" cy="15.49" r="1.25" fill="#face74" transform="matrix(.78476 0 0 .76974 2.918 .128)"/><circle cx="13.49" cy="12.23" r="1.63" fill="#face74" transform="matrix(.78476 0 0 .76974 2.918 .128)"/><circle cx="8.43" cy="10.55" r="2.22" fill="#fff" transform="matrix(.78476 0 0 .76974 2.918 .128)"/><circle cx="16.35" cy="6.42" r="2.47" fill="#fff" transform="matrix(.78476 0 0 .76974 2.918 .128)"/><circle cx="4.33" cy="4.21" r="2.93" fill="#face74" transform="matrix(.78476 0 0 .76974 2.918 .128)"/></svg>