<?xml version="1.0" encoding="UTF-8" standalone="no"?>
<svg
   xmlns:dc="http://purl.org/dc/elements/1.1/"
   xmlns:cc="http://creativecommons.org/ns#"
   xmlns:rdf="http://www.w3.org/1999/02/22-rdf-syntax-ns#"
   xmlns:svg="http://www.w3.org/2000/svg"
   xmlns="http://www.w3.org/2000/svg"
   xmlns:sodipodi="http://sodipodi.sourceforge.net/DTD/sodipodi-0.dtd"
   xmlns:inkscape="http://www.inkscape.org/namespaces/inkscape"
   sodipodi:docname="xoops.svg"
   width="136.56625mm"
   height="57.348747mm"
   viewBox="0 0 136.56625 57.348747"
   version="1.1"
   id="svg857"
   inkscape:version="1.0 (4035a4fb49, 2020-05-01)">
  <defs
     id="defs851" />
  <sodipodi:namedview
     inkscape:window-maximized="1"
     inkscape:window-y="-9"
     inkscape:window-x="-9"
     inkscape:window-height="1361"
     inkscape:window-width="2560"
     fit-margin-bottom="0"
     fit-margin-right="0"
     fit-margin-left="0"
     fit-margin-top="0"
     inkscape:snap-to-guides="false"
     inkscape:snap-grids="false"
     id="base"
     pagecolor="#808080"
     bordercolor="#666666"
     borderopacity="1.0"
     inkscape:pageopacity="0"
     inkscape:pageshadow="2"
     inkscape:zoom="2"
     inkscape:cx="370.89938"
     inkscape:cy="131.96017"
     inkscape:document-units="mm"
     inkscape:current-layer="layer1"
     inkscape:document-rotation="0"
     showgrid="true"
     inkscape:pagecheckerboard="true"
     showborder="false">
    <inkscape:grid
       originy="-87.93166"
       originx="-33.842496"
       type="xygrid"
       id="grid1420"
       color="#ffffff"
       opacity="0.1254902"
       empcolor="#000000"
       empopacity="0.45490196" />
  </sodipodi:namedview>
  <metadata
     id="metadata854">
    <rdf:RDF>
      <cc:Work
         rdf:about="">
        <dc:format>image/svg+xml</dc:format>
        <dc:type
           rdf:resource="http://purl.org/dc/dcmitype/StillImage" />
        <dc:title></dc:title>
      </cc:Work>
    </rdf:RDF>
  </metadata>
  <g
     transform="translate(-33.842499,-87.931662)"
     inkscape:label="Calque 1"
     inkscape:groupmode="layer"
     id="layer1">
    <path
       id="path852"
       d="M 104.51042,113.77083 V 130.175 l 14.02291,-7.9375 v -16.40417 z"
       style="font-variation-settings:normal;opacity:1;vector-effect:none;fill:none;fill-opacity:1;stroke:#face74;stroke-width:1.5;stroke-linecap:round;stroke-linejoin:round;stroke-miterlimit:4;stroke-dasharray:none;stroke-dashoffset:0;stroke-opacity:1;stop-color:#000000;stop-opacity:1" />
    <path
       style="font-variation-settings:normal;opacity:1;vector-effect:none;fill:none;fill-opacity:1;stroke:#face74;stroke-width:1.5;stroke-linecap:round;stroke-linejoin:round;stroke-miterlimit:4;stroke-dasharray:none;stroke-dashoffset:0;stroke-opacity:1;stop-color:#000000;stop-opacity:1"
       d="M 104.51042,113.77083 V 130.175 l -14.022856,-7.9375 v -16.40417 z"
       id="path854" />
    <path
       sodipodi:nodetypes="ccccc"
       style="font-variation-settings:normal;opacity:1;vector-effect:none;fill:none;fill-opacity:1;stroke:#face74;stroke-width:1.5;stroke-linecap:round;stroke-linejoin:round;stroke-miterlimit:4;stroke-dasharray:none;stroke-dashoffset:0;stroke-opacity:1;stop-color:#000000;stop-opacity:1"
       d="m 104.51042,113.77083 -14.022856,-7.9375 13.652316,-8.07377 14.39345,8.07377 z"
       id="path856" />
    <circle
       r="1.8942728"
       cy="109.32993"
       cx="104.46563"
       id="path860"
       style="fill:#face74;stroke-width:1;stroke-linecap:round;stroke-linejoin:round" />
    <circle
       style="fill:#face74;stroke-width:1.2963;stroke-linecap:round;stroke-linejoin:round"
       id="circle862"
       cx="107.13165"
       cy="104.41885"
       r="2.4555387" />
    <circle
       r="3.3442099"
       cy="101.89316"
       cx="99.507797"
       id="circle864"
       style="fill:#ffffff;stroke-width:1.76544;stroke-linecap:round;stroke-linejoin:round" />
    <circle
       style="fill:#ffffff;stroke-width:1.96297;stroke-linecap:round;stroke-linejoin:round"
       id="circle866"
       cx="111.43469"
       cy="95.672462"
       r="3.7183874" />
    <circle
       r="4.4199696"
       cy="92.351631"
       cx="93.33387"
       id="circle868"
       style="fill:#face74;stroke-width:2.33334;stroke-linecap:round;stroke-linejoin:round" />
    <path
       id="path918"
       d="m 34.924999,133.25211 6.35,5.15937 -6.35,5.42396"
       style="font-variation-settings:normal;opacity:1;vector-effect:none;fill:none;fill-opacity:1;stroke:#ffffff;stroke-width:2.165;stroke-linecap:round;stroke-linejoin:round;stroke-miterlimit:4;stroke-dasharray:none;stroke-dashoffset:0;stroke-opacity:1;stop-color:#000000;stop-opacity:1" />
    <path
       style="font-variation-settings:normal;opacity:1;vector-effect:none;fill:none;fill-opacity:1;stroke:#face74;stroke-width:2.165;stroke-linecap:round;stroke-linejoin:round;stroke-miterlimit:4;stroke-dasharray:none;stroke-dashoffset:0;stroke-opacity:1;stop-color:#000000;stop-opacity:1"
       d="m 47.095775,133.25211 -6.35,5.15937 6.35,5.42396"
       id="path920" />
    <path
       sodipodi:nodetypes="ccccccccc"
       id="path922"
       d="m 50.93489,136.43441 c 0.09454,-1.0655 -0.160031,-2.74458 1.96443,-2.71278 l 7.951269,-0.0468 c 1.916435,0.40897 2.067455,1.5241 2.15152,2.66601 l 2e-6,5.19172 c -0.127629,0.9739 -0.178969,2.01312 -1.870886,2.38537 l -8.138356,10e-6 c -1.248984,-0.0801 -2.052776,-0.71856 -2.057976,-2.29184 z"
       style="font-variation-settings:normal;opacity:1;vector-effect:none;fill:none;fill-opacity:1;stroke:#ffffff;stroke-width:2;stroke-linecap:round;stroke-linejoin:round;stroke-miterlimit:4;stroke-dasharray:none;stroke-dashoffset:0;stroke-opacity:1;stop-color:#000000;stop-opacity:1" />
    <path
       style="font-variation-settings:normal;opacity:1;vector-effect:none;fill:none;fill-opacity:1;stroke:#ffffff;stroke-width:2;stroke-linecap:round;stroke-linejoin:round;stroke-miterlimit:4;stroke-dasharray:none;stroke-dashoffset:0;stroke-opacity:1;stop-color:#000000;stop-opacity:1"
       d="m 66.280733,136.43441 c 0.09454,-1.0655 -0.160031,-2.74458 1.96443,-2.71278 l 7.951269,-0.0468 c 1.916435,0.40897 2.067455,1.5241 2.15152,2.66601 l 2e-6,5.19172 c -0.127629,0.9739 -0.178969,2.01312 -1.870886,2.38537 l -8.138356,10e-6 c -1.248984,-0.0801 -2.052776,-0.71856 -2.057976,-2.29184 z"
       id="path924"
       sodipodi:nodetypes="ccccccccc" />
    <path
       sodipodi:nodetypes="ccccccc"
       id="path926"
       d="m 81.991609,143.91794 0.09354,-10.66406 10.570508,0.14032 c 1.036554,0.14572 1.582285,0.72772 1.496711,1.87088 l 0.04677,2.75957 c -0.116422,0.63032 0.428225,1.69359 -1.216076,1.61364 l -10.874528,-0.0468"
       style="font-variation-settings:normal;opacity:1;vector-effect:none;fill:none;fill-opacity:1;stroke:#ffffff;stroke-width:2;stroke-linecap:round;stroke-linejoin:round;stroke-miterlimit:4;stroke-dasharray:none;stroke-dashoffset:0;stroke-opacity:1;stop-color:#000000;stop-opacity:1" />
    <path
       sodipodi:nodetypes="cccccccccc"
       id="path928"
       d="m 102.85199,133.79174 -4.186104,0.0234 c -1.25585,0.13372 -1.177641,0.83854 -1.216078,1.5201 l -0.02338,2.1749 c 0.04093,1.57076 1.009805,1.28562 1.824114,1.30962 l 8.091578,0.18709 c 1.58736,0.15735 1.89123,0.95645 1.87089,1.91766 l -0.0702,1.87088 c 0.041,1.5 -1.35467,1.02396 -1.87089,1.09915 l -10.032625,0.0234"
       style="font-variation-settings:normal;opacity:1;vector-effect:none;fill:none;fill-opacity:1;stroke:#ffffff;stroke-width:2;stroke-linecap:round;stroke-linejoin:round;stroke-miterlimit:4;stroke-dasharray:none;stroke-dashoffset:0;stroke-opacity:1;stop-color:#000000;stop-opacity:1" />
    <path
       sodipodi:nodetypes="cccccc"
       id="path930"
       d="m 130.16694,133.81515 -10.61728,-0.0936 c -1.2324,-0.0163 -1.78408,0.59583 -1.87089,1.63703 l -0.0468,7.0626 c 0.0642,1.40686 0.943,1.36547 1.77734,1.40316 l 10.89792,0.0936"
       style="font-variation-settings:normal;opacity:1;vector-effect:none;fill:none;fill-opacity:1;stroke:#ffffff;stroke-width:2;stroke-linecap:round;stroke-linejoin:round;stroke-miterlimit:4;stroke-dasharray:none;stroke-dashoffset:0;stroke-opacity:1;stop-color:#000000;stop-opacity:1" />
    <path
       sodipodi:nodetypes="cccccc"
       id="path932"
       d="m 132.82083,136.59645 v 6.15156 c 0.6131,0.88338 1.16134,1.11827 1.68672,1.12448 l 6.77995,0.0331 c 1.14724,0.056 1.5383,-0.17565 1.55443,-1.15755 l 0.0661,-5.72161"
       style="font-variation-settings:normal;opacity:1;vector-effect:none;fill:none;fill-opacity:1;stroke:#ffffff;stroke-width:2;stroke-linecap:round;stroke-linejoin:round;stroke-miterlimit:4;stroke-dasharray:none;stroke-dashoffset:0;stroke-opacity:1;stop-color:#000000;stop-opacity:1" />
    <path
       style="font-variation-settings:normal;opacity:1;vector-effect:none;fill:none;fill-opacity:1;stroke:#ffffff;stroke-width:2;stroke-linecap:round;stroke-linejoin:round;stroke-miterlimit:4;stroke-dasharray:none;stroke-dashoffset:0;stroke-opacity:1;stop-color:#000000;stop-opacity:1"
       d="m 145.78356,134.75053 0.0804,9.16741 9.08699,-0.12063 c 0.89107,-0.12527 1.36021,-0.62559 1.28665,-1.60831 l 0.0402,-2.37228 c -0.10009,-0.54186 0.36812,-1.4559 -1.04541,-1.38717 l -9.34834,0.0402"
       id="path934"
       sodipodi:nodetypes="ccccccc" />
    <path
       sodipodi:nodetypes="ccccccccc"
       id="path936"
       d="m 159.44632,139.98906 h 9.82215 l -0.0468,-1.91766 c -0.12227,-0.82584 -0.87996,-1.19781 -1.87089,-1.40317 l -6.08038,0.0468 c -1.011,0.18909 -1.65501,0.684 -1.91766,1.49671 v 4.81753 c 0.49213,0.77749 1.33994,0.84361 2.19829,0.88867 h 7.85773"
       style="font-variation-settings:normal;opacity:1;vector-effect:none;fill:none;fill-opacity:1;stroke:#ffffff;stroke-width:2;stroke-linecap:round;stroke-linejoin:round;stroke-miterlimit:4;stroke-dasharray:none;stroke-dashoffset:0;stroke-opacity:1;stop-color:#000000;stop-opacity:1" />
  </g>
  <g
     transform="translate(-33.842499,-87.931662)"
     inkscape:label="Calque 2"
     id="layer2"
     inkscape:groupmode="layer" />
</svg>
