<svg viewBox="0 0 640 480" xmlns="http://www.w3.org/2000/svg" xmlns:bx="https://boxy-svg.com">
  <defs>
    <bx:grid x="0" y="0" width="10" height="10"></bx:grid>
    <linearGradient id="color-0" gradientUnits="userSpaceOnUse" bx:pinned="true">
      <title>color-1</title>
      <stop style="stop-color: rgb(33, 37, 41);"></stop>
    </linearGradient>
    <linearGradient id="color-1" gradientUnits="userSpaceOnUse" gradientTransform="matrix(0.718401, 0, 0, 1.682498, 56.776295, 385.073517)" bx:pinned="true">
      <title>color-2</title>
      <stop style="stop-color: rgb(37, 42, 46);"></stop>
    </linearGradient>
    <linearGradient id="color-2" gradientUnits="userSpaceOnUse" bx:pinned="true">
      <title>color-3</title>
      <stop style="stop-color: rgb(33, 37, 41);"></stop>
    </linearGradient>
    <linearGradient id="color-3" gradientUnits="userSpaceOnUse" gradientTransform="matrix(0.896552, 0, 0, 1, 72.068962, 74.389999)" bx:pinned="true">
      <title>color-4</title>
      <stop style="stop-color: rgb(66, 69, 73);"></stop>
    </linearGradient>
    <linearGradient id="color-4" gradientUnits="userSpaceOnUse" gradientTransform="matrix(1, 0, 0, 1, 99.999998, 20)" bx:pinned="true">
      <title>c1</title>
      <stop style="stop-color: #d8d8d8;"></stop>
    </linearGradient>
    <linearGradient id="color-5" gradientUnits="userSpaceOnUse" gradientTransform="matrix(0.785835, 0, 0, 1, 157.203461, -157.558197)" bx:pinned="true">
      <title>c2</title>
      <stop style="stop-color: rgb(13, 110, 253);"></stop>
    </linearGradient>
    <linearGradient id="color-6" gradientUnits="userSpaceOnUse" gradientTransform="matrix(1, 0, 0, 1, 0, 0)" bx:pinned="true">
      <title>c3</title>
      <stop style="stop-color: rgb(173, 181, 189);"></stop>
    </linearGradient>
  </defs>
  <rect width="640" height="480" style="fill: url(#color-0); stroke: rgb(0, 0, 0); pointer-events: none;">
    <title>bg</title>
  </rect>
  <rect x="30" y="69.52" width="580" height="50.48" style="fill: url(#color-1); stroke: rgb(0, 0, 0);">
    <title>navbar</title>
  </rect>
  <rect y="270" width="90" height="90" style="fill: url(#color-1); stroke: rgb(0, 0, 0);" x="30">
    <title>block-left</title>
  </rect>
  <rect x="140.7" y="300" width="469.3" height="110" style="fill: url(#color-1); stroke: rgb(0, 0, 0);">
    <title>content</title>
  </rect>
  <rect style="fill: url(#color-3); stroke: rgb(0, 0, 0);" x="350" y="150" width="260" height="84.39" rx="5" ry="5">
    <title>hero-cta</title>
  </rect>
  <g transform="matrix(1.108272, 0, 0, 1, -290.060547, 106.75)" style="">
    <title>cta</title>
    <text style="fill: url(#color-5); font-family: Arial, sans-serif; font-size: 33.5373px; font-weight: 700; line-height: 91.9879px; white-space: pre;" transform="matrix(0.417444, 0, 0, 0.417446, 316.000031, 118.352242)"><title>cta</title>CTA</text>
    <path d="M 290 103.25 L 370 103.25 L 370 123.25 L 290 123.25 L 290 103.25 Z" style="paint-order: fill; fill-rule: nonzero; fill: none; stroke: url(#color-5);">
      <title>btn</title>
    </path>
  </g>
  <g transform="matrix(1, 0, 0, 1, 10.699966, 40.297684)">
    <title>breadcrumb</title>
    <text style="fill: url(#color-6); font-family: Arial, sans-serif; font-size: 21.9555px; line-height: 38.0561px; white-space: pre;" transform="matrix(0.546559, 0, 0, 0.546561, 150.47258, 240.869354)"><title>block-left</title>/ Breadcrumbs /</text>
    <g transform="matrix(1, 0, 0, 1, -260.650909, -89.745193)">
      <title>home</title>
      <path fill-rule="evenodd" d="M 392.15 331.74 L 392.15 325.24 L 393.15 325.24 L 393.15 331.74 C 393.15 332.02 393.37 332.24 393.65 332.24 L 402.65 332.24 C 402.93 332.24 403.15 332.02 403.15 331.74 L 403.15 325.24 L 404.15 325.24 L 404.15 331.74 C 404.15 332.57 403.48 333.24 402.65 333.24 L 393.65 333.24 C 392.82 333.24 392.15 332.57 392.15 331.74 Z M 403.15 320.74 L 403.15 324.24 L 401.15 322.24 L 401.15 320.74 C 401.15 320.47 401.37 320.24 401.65 320.24 L 402.65 320.24 C 402.93 320.24 403.15 320.47 403.15 320.74 Z" style="stroke: url(#color-6); stroke-miterlimit: 1; paint-order: fill;"></path>
      <path fill-rule="evenodd" d="M 397.44 319.74 C 397.83 319.35 398.47 319.35 398.86 319.74 L 405.5 326.39 C 405.78 326.66 405.65 327.13 405.28 327.23 C 405.11 327.27 404.92 327.23 404.8 327.1 L 398.15 320.45 L 391.5 327.1 C 391.23 327.37 390.77 327.25 390.67 326.87 C 390.62 326.7 390.67 326.52 390.8 326.39 L 397.44 319.74 Z" style="stroke: url(#color-6); stroke-miterlimit: 1; paint-order: fill;"></path>
    </g>
  </g>
  <path d="M -465 -100.84 L -460 -91 L -470 -91 L -465 -100.84 Z" style="fill: rgb(216, 216, 216); stroke: rgb(0, 0, 0);" transform="matrix(-1, 0, 0, -1, 0, 0)" bx:shape="triangle -470 -100.84 10 9.84 0.5 0 1@0fcae4ec">
    <title>drop1</title>
  </path>
  <path d="M -575 -99.95 L -570 -90 L -580 -90 L -575 -99.95 Z" style="fill: rgb(216, 216, 216); stroke: rgb(0, 0, 0);" transform="matrix(-1, 0, 0, -1, 0, 0)" bx:shape="triangle -580 -99.95 10 9.95 0.5 0 1@7f264a47">
    <title>drop2</title>
  </path>
  <path d="M 294.69 129.17 H 310.88 L 310.88 122.5 L 318.27 132.5 L 310.88 142.5 L 310.88 135.84 H 294.69 V 129.17 Z" style="fill: url(#color-5); stroke: rgb(0, 0, 0);" transform="matrix(0, 1, -1, 0, 534.599243, -238.042358)" bx:shape="arrow 294.69 122.5 23.58 20 6.67 7.39 0 1@37154bd4"></path>
  <text style="white-space: pre; fill: url(#color-4); font-family: Arial, sans-serif; font-size: 28px;" transform="matrix(0.417444, 0, 0, 0.417446, 40, 98.330208)"><title>logo-site</title>Logo   Site Name</text>
  <text style="fill: url(#color-6); font-family: Arial, sans-serif; font-size: 26.8298px; line-height: 42.9278px; white-space: pre;" transform="matrix(0.521806, 0, 0, 0.521807, 380.000031, 97.952148)"><title>main-menu</title>Main Menu</text>
  <text style="white-space: pre; fill: url(#color-6); font-family: Arial, sans-serif; font-size: 28px;" transform="matrix(0.521806, 0, 0, 0.521807, 488.555237, 97.689606)"><title>user-menu</title>User Menu</text>
  <text style="fill: url(#color-6); font-family: Arial, sans-serif; font-size: 57.4925px; font-weight: 700; line-height: 91.9879px; white-space: pre;" transform="matrix(0.417444, 0, 0, 0.417446, 31.716314, 171.085159)"><title>hero</title><tspan>A Bootstrap 5 template</tspan><tspan x="0" dy="1em">​</tspan><tspan>for XOOPSCube XCL 2.3</tspan></text>
  <text style="fill: url(#color-6); font-family: Arial, sans-serif; font-size: 25.6147px; white-space: pre;" transform="matrix(0.546559, 0, 0, 0.546561, 45, 292.854187)"><title>block-left</title>Block-left</text>
  <text style="fill: url(#color-5); font-family: Arial, sans-serif; font-size: 36.5924px; line-height: 46.8383px; white-space: pre;" transform="matrix(0.546559, 0, 0, 0.546561, 186.153687, 365.47171)"><title>note-content</title>Custom Start Template or Module Content</text>
  <text style="fill: url(#color-5); font-family: Arial, sans-serif; font-size: 19.9999px; line-height: 36.7999px; white-space: pre;" transform="matrix(1, 0, 0, 1.000004, 350, 52.488918)"><title>note-prefix</title><tspan>Block-left with prefix </tspan><tspan>navbar-</tspan></text>
  <text style="fill: url(#color-5); font-family: Arial, sans-serif; font-size: 19.9999px; line-height: 36.7999px; white-space: pre;" transform="matrix(1, 0, 0, 1.000004, 405.099243, 196.305832)"><title>note-hero</title><tspan>Component Hero</tspan></text>
</svg>