<svg xmlns="http://www.w3.org/2000/svg" xmlns:xlink="http://www.w3.org/1999/xlink" aria-hidden="true" focusable="false" width="1em" height="1em" style="vertical-align: -0.125em;-ms-transform: rotate(360deg); -webkit-transform: rotate(360deg); transform: rotate(360deg);" preserveAspectRatio="xMidYMid meet" viewBox="0 0 24 24" class="iconify" data-icon="mdi:emoticon-neutral"><path d="M12 2A10 10 0 0 0 2 12a10 10 0 0 0 10 10a10 10 0 0 0 10-10A10 10 0 0 0 12 2M7 9.5A1.5 1.5 0 0 1 8.5 8A1.5 1.5 0 0 1 10 9.5A1.5 1.5 0 0 1 8.5 11A1.5 1.5 0 0 1 7 9.5m9 6.5H8v-2h8v2m-.5-5A1.5 1.5 0 0 1 14 9.5A1.5 1.5 0 0 1 15.5 8A1.5 1.5 0 0 1 17 9.5a1.5 1.5 0 0 1-1.5 1.5z" fill="currentColor"></path></svg>