<svg xmlns="http://www.w3.org/2000/svg" xmlns:xlink="http://www.w3.org/1999/xlink" aria-hidden="true" focusable="false" width="1em" height="1em" style="vertical-align: -0.125em;-ms-transform: rotate(360deg); -webkit-transform: rotate(360deg); transform: rotate(360deg);" preserveAspectRatio="xMidYMid meet" viewBox="0 0 24 24" class="iconify" data-icon="mdi:account-star"><path d="M15 14c-2.67 0-8 1.33-8 4v2h16v-2c0-2.67-5.33-4-8-4m0-2a4 4 0 0 0 4-4a4 4 0 0 0-4-4a4 4 0 0 0-4 4a4 4 0 0 0 4 4M5 13.28l2.45 1.49l-.65-2.81L9 10.08l-2.89-.25L5 7.19L3.87 9.83L1 10.08l2.18 1.88l-.68 2.81L5 13.28z" fill="currentColor"></path></svg>