<svg xmlns="http://www.w3.org/2000/svg" width="1em" height="1em" preserveAspectRatio="xMidYMid meet" viewBox="0 0 24 24" style="-ms-transform: rotate(360deg); -webkit-transform: rotate(360deg); transform: rotate(360deg);"><path d="M20 2H4c-1.11 0-2 .89-2 2v12a2 2 0 0 0 2 2h4v3c0 .55.45 1 1 1h.5c.25 0 .5-.1.7-.29L13.9 18H20c1.1 0 2-.9 2-2V4a2 2 0 0 0-2-2M9.08 15H7v-2.09l6.17-6.19l2.07 2.08L9.08 15m7.76-7.8l-1.01 1.01l-2.07-2.03l1.01-1.02c.2-.21.54-.22.78 0l1.29 1.25c.21.21.22.55 0 .79z" fill="currentColor"/></svg>
