<?xml version="1.0" standalone="no"?>
<!DOCTYPE svg PUBLIC "-//W3C//DTD SVG 20010904//EN"
 "http://www.w3.org/TR/2001/REC-SVG-20010904/DTD/svg10.dtd">
<svg version="1.0" xmlns="http://www.w3.org/2000/svg"
 width="150.000000pt" height="150.000000pt" viewBox="0 0 150.000000 150.000000"
 preserveAspectRatio="xMidYMid meet">
<metadata>
Created by potrace 1.14, written by Peter Selinger 2001-2017
</metadata>
<g transform="translate(0.000000,150.000000) scale(0.100000,-0.100000)"
fill="#000000" stroke="none">
<path d="M0 750 l0 -750 750 0 750 0 0 750 0 750 -750 0 -750 0 0 -750z m922
343 c48 -43 -8 -122 -65 -92 -27 15 -37 28 -37 53 0 48 64 73 102 39z m-198
-99 c12 -31 6 -54 -20 -70 -24 -16 -27 -16 -52 3 -27 21 -30 45 -10 71 15 18
75 15 82 -4z m-570 -743 c12 -24 11 -28 -23 -56 l-35 -30 27 36 27 36 -20 26
c-11 14 -20 28 -20 32 0 13 31 -18 44 -44z m206 30 c15 -29 12 -77 -6 -95 -20
-21 -78 -21 -98 0 -19 18 -21 85 -4 102 7 7 31 12 55 12 32 0 45 -5 53 -19z
m148 -40 c3 -59 -5 -71 -51 -71 -50 0 -67 16 -67 63 0 56 14 69 70 65 l45 -3
3 -54z m147 19 c0 -35 -1 -35 -50 -40 -42 -4 -50 -9 -56 -30 -5 -16 -7 -1 -8
43 l-1 68 58 -3 57 -3 0 -35z m108 33 c-29 -2 -54 -8 -54 -14 -5 -31 -1 -34
46 -39 53 -5 69 -26 45 -55 -14 -17 -110 -21 -110 -5 0 6 25 10 56 10 47 0 55
3 52 18 -2 11 -14 18 -33 20 -63 5 -75 12 -75 36 0 30 11 35 75 33 l50 -1 -52
-3z m227 0 c-58 -6 -72 -18 -68 -62 3 -36 3 -36 56 -39 61 -4 71 -22 11 -22
-62 0 -79 13 -79 63 0 56 13 67 75 65 l50 -1 -45 -4z m241 -33 c28 -4 35 -10
37 -33 5 -38 -14 -57 -54 -57 l-34 0 1 68 c0 43 3 60 8 47 5 -13 20 -22 42
-25z m-123 -68 c31 -3 32 -2 32 32 0 20 5 36 11 36 6 0 9 -16 7 -37 -2 -31 -8
-39 -31 -47 -41 -15 -62 2 -64 50 l-1 39 6 -35 c6 -31 11 -35 40 -38z m280 41
c3 -21 -1 -23 -37 -23 -23 0 -41 -4 -41 -10 0 -5 16 -10 35 -10 19 0 35 -4 35
-10 0 -16 -57 -12 -74 6 -17 17 -20 33 -10 59 5 12 17 15 48 13 34 -2 42 -7
44 -25z"/>
<path d="M267 283 c-4 -3 -7 -26 -7 -50 l0 -43 44 0 c31 0 46 5 50 16 10 25 7
59 -6 72 -13 13 -70 17 -81 5z"/>
<path d="M417 284 c-4 -4 -7 -27 -7 -51 l0 -43 46 0 45 0 -3 48 c-3 46 -4 47
-38 50 -20 2 -39 0 -43 -4z"/>
<path d="M554 276 c-13 -33 4 -47 48 -44 38 3 43 6 43 28 0 22 -5 25 -43 28
-31 2 -44 -1 -48 -12z"/>
<path d="M1190 220 c0 -28 3 -30 35 -30 32 0 35 2 35 30 0 28 -3 30 -35 30
-32 0 -35 -2 -35 -30z"/>
<path d="M1310 240 c0 -5 16 -10 36 -10 21 0 33 4 29 10 -3 6 -19 10 -36 10
-16 0 -29 -4 -29 -10z"/>
</g>
</svg>
