<svg xmlns="http://www.w3.org/2000/svg" aria-hidden="true" role="img" viewBox="0 0 32 32">
<g stroke-width="1" stroke="trnasparent" fill="currentColor"><path d="M29.415 21.666l-6.335-6.335l6.334-6.334a2 2 0 0 0 .001-2.829l-.001-.002l-3.58-3.58a2 2 0 0 0-2.829-.001l-.001.001L16.67 8.92l-6.335-6.335a2.004 2.004 0 0 0-2.828 0L2.585 7.506a2.001 2.001 0 0 0 0 2.829l6.334 6.334L2 23.59V30h6.41l6.92-6.92l6.335 6.337a2.008 2.008 0 0 0 2.83 0l4.92-4.922a2.001 2.001 0 0 0 0-2.829zm-5.002-17.67l3.59 3.59l-6.333 6.334l-3.59-3.59zM8 28H4v-3.591l6.33-6.329l3.676 3.678zm15.08.004L4 8.92L8.922 4l3.788 3.787l-2.252 2.253l1.415 1.414l2.251-2.252l4.13 4.13L16 15.582l1.416 1.414l2.252-2.252l4.13 4.13l-2.252 2.251l1.414 1.415l2.252-2.251l2.79 2.791z"/>
</g>
</svg>