<svg xmlns="http://www.w3.org/2000/svg" 
width="100%" height="100%" viewBox="0 0 240 100">
<g id="ui-components">
<path class="module-icon" fill="currentColor" d="M21 13.1c-.1 0-.3.1-.4.2l-1 1l2.1 2.1l1-1c.2-.2.2-.6 0-.8l-1.3-1.3c-.1-.1-.2-.2-.4-.2m-1.9 1.8l-6.1 6V23h2.1l6.1-6.1l-2.1-2M21 3h-8v6h8V3m-2 4h-4V5h4v2m-6 11.06V11h8v.1c-.76 0-1.43.4-1.81.79L18.07 13H15v3.07l-2 1.99M11 3H3v10h8V3m-2 8H5V5h4v6m2 9.06V15H3v6h8v-.94M9 19H5v-2h4v2Z"/>
<text class="module-name" x="120px" y="50px" fill="currentColor">
<tspan><![CDATA[UI-Components]]></tspan>
</text>
</g>
</svg>